<svg xmlns="http://www.w3.org/2000/svg" viewBox="0 0 512 512" width="512" height="512">
  <defs>
    <linearGradient id="brand-grad" x1="0%" y1="0%" x2="100%" y2="100%">
      <stop offset="0%" stop-color="#60a5fa" />
      <stop offset="100%" stop-color="#a78bfa" />
    </linearGradient>
  </defs>
  <path fill="url(#brand-grad)" fill-rule="evenodd" d="M 281.46 33.39 L 280.27 34.58 L 268.43 34.58 L 267.25 35.76 L 261.33 35.76 L 260.14 36.94 L 254.22 36.94 L 253.04 38.13 L 249.49 38.13 L 248.30 39.31 L 244.75 39.31 L 243.57 40.50 L 241.20 40.50 L 240.01 41.68 L 237.65 41.68 L 236.46 42.86 L 234.09 42.86 L 232.91 44.05 L 230.54 44.05 L 229.36 45.23 L 228.17 45.23 L 226.99 46.42 L 225.81 46.42 L 224.62 47.60 L 222.25 47.60 L 221.07 48.78 L 219.89 48.78 L 218.70 49.97 L 217.52 49.97 L 215.15 52.34 L 213.96 52.34 L 212.78 53.52 L 211.60 53.52 L 209.23 55.89 L 208.04 55.89 L 205.68 58.26 L 204.49 58.26 L 200.94 61.81 L 199.76 61.81 L 193.84 67.73 L 192.65 67.73 L 184.36 76.02 L 184.36 77.20 L 178.44 83.12 L 178.44 84.31 L 174.89 87.86 L 174.89 89.04 L 172.52 91.41 L 171.34 91.41 L 155.94 76.02 L 155.94 74.83 L 153.58 72.47 L 153.58 71.28 L 151.21 68.91 L 151.21 67.73 L 148.84 65.36 L 148.84 64.18 L 147.66 62.99 L 147.66 61.81 L 146.47 60.63 L 146.47 59.44 L 145.29 58.26 L 145.29 55.89 L 144.10 54.70 L 144.10 53.52 L 142.92 52.34 L 142.92 49.97 L 141.74 48.78 L 141.74 46.42 L 140.55 45.23 L 140.55 42.86 L 139.37 42.86 L 138.18 44.05 L 138.18 45.23 L 137.00 46.42 L 137.00 47.60 L 134.63 49.97 L 134.63 51.15 L 132.26 53.52 L 132.26 54.70 L 131.08 55.89 L 131.08 57.07 L 128.71 59.44 L 128.71 60.63 L 127.53 61.81 L 127.53 62.99 L 125.16 65.36 L 125.16 66.55 L 123.97 67.73 L 123.97 71.28 L 125.16 72.47 L 125.16 74.83 L 126.34 76.02 L 126.34 78.39 L 127.53 79.57 L 127.53 80.75 L 128.71 81.94 L 128.71 83.12 L 129.89 84.31 L 129.89 85.49 L 131.08 86.68 L 131.08 87.86 L 132.26 89.04 L 132.26 90.23 L 134.63 92.60 L 134.63 93.78 L 137.00 96.15 L 137.00 97.33 L 141.74 102.07 L 141.74 103.25 L 146.47 107.99 L 147.66 107.99 L 153.58 113.91 L 154.76 113.91 L 157.13 116.28 L 157.13 118.65 L 155.94 119.83 L 155.94 121.01 L 154.76 122.20 L 154.76 123.38 L 153.58 124.57 L 153.58 126.93 L 152.39 128.12 L 152.39 129.30 L 151.21 130.49 L 151.21 131.67 L 150.02 132.85 L 150.02 135.22 L 148.84 136.41 L 148.84 137.59 L 147.66 138.78 L 147.66 139.96 L 146.47 141.14 L 146.47 143.51 L 145.29 144.70 L 145.29 145.88 L 144.10 147.06 L 144.10 149.43 L 142.92 150.62 L 142.92 151.80 L 141.74 152.98 L 141.74 155.35 L 140.55 156.54 L 140.55 158.90 L 139.37 160.09 L 139.37 162.46 L 138.18 163.64 L 138.18 166.01 L 137.00 167.19 L 137.00 169.56 L 135.81 170.75 L 135.81 173.11 L 134.63 174.30 L 134.63 176.67 L 133.45 177.85 L 133.45 180.22 L 132.26 181.40 L 132.26 183.77 L 131.08 184.95 L 131.08 187.32 L 129.89 188.51 L 129.89 190.88 L 128.71 192.06 L 128.71 194.43 L 127.53 195.61 L 127.53 199.16 L 126.34 200.35 L 126.34 202.72 L 125.16 203.90 L 125.16 206.27 L 123.97 207.45 L 123.97 209.82 L 122.79 211.00 L 122.79 213.37 L 121.61 214.56 L 121.61 218.11 L 120.42 219.29 L 120.42 221.66 L 119.24 222.85 L 119.24 225.21 L 118.05 226.40 L 118.05 228.77 L 116.87 229.95 L 116.87 233.50 L 115.69 234.69 L 115.69 237.05 L 114.50 238.24 L 114.50 240.61 L 113.32 241.79 L 113.32 244.16 L 112.13 245.34 L 112.13 248.90 L 110.95 250.08 L 110.95 252.45 L 109.77 253.63 L 109.77 256.00 L 108.58 257.18 L 108.58 259.55 L 107.40 260.74 L 107.40 263.10 L 106.21 264.29 L 106.21 267.84 L 105.03 269.02 L 105.03 271.39 L 103.84 272.58 L 103.84 274.95 L 102.66 276.13 L 102.66 278.50 L 101.48 279.68 L 101.48 283.23 L 100.29 284.42 L 100.29 286.79 L 99.11 287.97 L 99.11 290.34 L 97.92 291.52 L 97.92 293.89 L 96.74 295.07 L 96.74 297.44 L 95.56 298.63 L 95.56 302.18 L 94.37 303.36 L 94.37 305.73 L 93.19 306.92 L 93.19 309.28 L 92.00 310.47 L 92.00 312.84 L 90.82 314.02 L 90.82 316.39 L 89.64 317.57 L 89.64 321.12 L 88.45 322.31 L 88.45 324.68 L 87.27 325.86 L 87.27 328.23 L 86.08 329.41 L 86.08 331.78 L 84.90 332.97 L 84.90 336.52 L 83.72 337.70 L 83.72 340.07 L 82.53 341.25 L 82.53 343.62 L 81.35 344.81 L 81.35 347.17 L 80.16 348.36 L 80.16 350.73 L 78.98 351.91 L 78.98 355.46 L 77.79 356.65 L 77.79 359.02 L 76.61 360.20 L 76.61 362.57 L 75.43 363.75 L 75.43 366.12 L 74.24 367.30 L 74.24 369.67 L 73.06 370.86 L 73.06 374.41 L 71.87 375.59 L 71.87 377.96 L 70.69 379.15 L 70.69 381.51 L 69.51 382.70 L 69.51 386.25 L 68.32 387.43 L 68.32 389.80 L 67.14 390.99 L 67.14 393.35 L 65.95 394.54 L 65.95 396.91 L 64.77 398.09 L 64.77 400.46 L 63.59 401.64 L 63.59 405.20 L 62.40 406.38 L 62.40 408.75 L 61.22 409.93 L 61.22 412.30 L 60.03 413.48 L 60.03 415.85 L 58.85 417.04 L 58.85 420.59 L 57.67 421.77 L 57.67 424.14 L 56.48 425.32 L 56.48 427.69 L 55.30 428.88 L 55.30 431.25 L 54.11 432.43 L 54.11 435.98 L 52.93 437.17 L 52.93 439.53 L 51.74 440.72 L 51.74 443.09 L 50.56 444.27 L 50.56 446.64 L 49.38 447.82 L 49.38 450.19 L 48.19 451.37 L 48.19 453.74 L 47.01 454.93 L 47.01 458.48 L 45.82 459.66 L 45.82 462.03 L 44.64 463.22 L 44.64 465.58 L 43.46 466.77 L 43.46 469.14 L 42.27 470.32 L 42.27 473.87 L 41.09 475.06 L 41.09 477.42 L 39.90 478.61 L 71.87 478.61 L 73.06 477.42 L 89.64 477.42 L 90.82 476.24 L 102.66 476.24 L 103.84 475.06 L 114.50 475.06 L 115.69 473.87 L 123.97 473.87 L 125.16 472.69 L 131.08 472.69 L 132.26 471.50 L 139.37 471.50 L 140.55 470.32 L 146.47 470.32 L 147.66 469.14 L 152.39 469.14 L 153.58 467.95 L 159.50 467.95 L 160.68 466.77 L 165.42 466.77 L 166.60 465.58 L 170.15 465.58 L 171.34 464.40 L 174.89 464.40 L 176.07 463.22 L 180.81 463.22 L 181.99 462.03 L 185.55 462.03 L 186.73 460.85 L 190.28 460.85 L 191.47 459.66 L 195.02 459.66 L 196.20 458.48 L 198.57 458.48 L 199.76 457.30 L 203.31 457.30 L 204.49 456.11 L 208.04 456.11 L 209.23 454.93 L 211.60 454.93 L 212.78 453.74 L 215.15 453.74 L 216.33 452.56 L 218.70 452.56 L 219.89 451.37 L 223.44 451.37 L 224.62 450.19 L 225.81 450.19 L 226.99 449.01 L 229.36 449.01 L 230.54 447.82 L 232.91 447.82 L 234.09 446.64 L 236.46 446.64 L 237.65 445.45 L 240.01 445.45 L 241.20 444.27 L 243.57 444.27 L 244.75 443.09 L 245.94 443.09 L 247.12 441.90 L 249.49 441.90 L 250.67 440.72 L 251.86 440.72 L 253.04 439.53 L 255.41 439.53 L 256.59 438.35 L 257.78 438.35 L 258.96 437.17 L 261.33 437.17 L 262.51 435.98 L 263.70 435.98 L 264.88 434.80 L 266.06 434.80 L 267.25 433.61 L 268.43 433.61 L 269.62 432.43 L 271.99 432.43 L 273.17 431.25 L 274.35 431.25 L 275.54 430.06 L 276.72 430.06 L 277.91 428.88 L 279.09 428.88 L 280.27 427.69 L 281.46 427.69 L 282.64 426.51 L 285.01 426.51 L 286.19 425.32 L 287.38 425.32 L 289.75 422.96 L 290.93 422.96 L 292.11 421.77 L 293.30 421.77 L 294.48 420.59 L 295.67 420.59 L 296.85 419.40 L 298.04 419.40 L 299.22 418.22 L 300.40 418.22 L 301.59 417.04 L 302.77 417.04 L 303.96 415.85 L 305.14 415.85 L 307.51 413.48 L 308.69 413.48 L 309.88 412.30 L 311.06 412.30 L 312.24 411.12 L 313.43 411.12 L 315.80 408.75 L 316.98 408.75 L 318.16 407.56 L 319.35 407.56 L 321.72 405.20 L 322.90 405.20 L 324.09 404.01 L 325.27 404.01 L 327.64 401.64 L 328.82 401.64 L 331.19 399.27 L 332.37 399.27 L 334.74 396.91 L 335.93 396.91 L 338.29 394.54 L 339.48 394.54 L 343.03 390.99 L 344.21 390.99 L 346.58 388.62 L 347.77 388.62 L 351.32 385.07 L 352.50 385.07 L 357.24 380.33 L 358.42 380.33 L 363.16 375.59 L 364.34 375.59 L 372.63 367.30 L 373.82 367.30 L 396.31 344.81 L 396.31 343.62 L 403.42 336.52 L 403.42 335.33 L 408.16 330.60 L 408.16 329.41 L 411.71 325.86 L 411.71 324.68 L 415.26 321.12 L 415.26 319.94 L 418.81 316.39 L 418.81 315.20 L 421.18 312.84 L 421.18 311.65 L 422.36 310.47 L 422.36 309.28 L 424.73 306.92 L 424.73 305.73 L 425.92 304.55 L 425.92 303.36 L 428.28 301.00 L 428.28 299.81 L 429.47 298.63 L 429.47 297.44 L 430.65 296.26 L 430.65 295.07 L 431.84 293.89 L 431.84 292.71 L 434.21 290.34 L 434.21 289.15 L 435.39 287.97 L 435.39 285.60 L 436.57 284.42 L 436.57 283.23 L 437.76 282.05 L 437.76 280.87 L 438.94 279.68 L 438.94 278.50 L 440.13 277.31 L 440.13 276.13 L 441.31 274.95 L 441.31 272.58 L 442.49 271.39 L 442.49 269.02 L 443.68 267.84 L 443.68 266.66 L 444.86 265.47 L 444.86 263.10 L 446.05 261.92 L 446.05 259.55 L 447.23 258.37 L 447.23 254.82 L 448.41 253.63 L 448.41 251.26 L 449.60 250.08 L 449.60 246.53 L 450.78 245.34 L 450.78 240.61 L 451.97 239.42 L 451.97 234.69 L 453.15 233.50 L 453.15 227.58 L 454.33 226.40 L 454.33 215.74 L 455.52 214.56 L 455.52 189.69 L 454.33 188.51 L 454.33 175.48 L 453.15 174.30 L 453.15 167.19 L 451.97 166.01 L 451.97 160.09 L 450.78 158.90 L 450.78 154.17 L 449.60 152.98 L 449.60 149.43 L 448.41 148.25 L 448.41 144.70 L 447.23 143.51 L 447.23 141.14 L 446.05 139.96 L 446.05 136.41 L 444.86 135.22 L 444.86 132.85 L 443.68 131.67 L 443.68 130.49 L 442.49 129.30 L 442.49 126.93 L 441.31 125.75 L 441.31 123.38 L 440.13 122.20 L 440.13 121.01 L 438.94 119.83 L 438.94 118.65 L 440.13 117.46 L 441.31 117.46 L 443.68 115.09 L 444.86 115.09 L 446.05 113.91 L 447.23 113.91 L 451.97 109.17 L 453.15 109.17 L 460.26 102.07 L 460.26 100.88 L 462.62 98.52 L 462.62 97.33 L 464.99 94.96 L 464.99 93.78 L 466.18 92.60 L 466.18 91.41 L 467.36 90.23 L 467.36 89.04 L 468.54 87.86 L 468.54 86.68 L 469.73 85.49 L 469.73 83.12 L 470.91 81.94 L 470.91 78.39 L 472.10 77.20 L 472.10 71.28 L 469.73 68.91 L 469.73 67.73 L 466.18 64.18 L 466.18 62.99 L 463.81 60.63 L 463.81 59.44 L 461.44 57.07 L 461.44 55.89 L 457.89 52.34 L 457.89 51.15 L 455.52 48.78 L 455.52 47.60 L 454.33 48.78 L 454.33 54.70 L 453.15 55.89 L 453.15 58.26 L 451.97 59.44 L 451.97 61.81 L 450.78 62.99 L 450.78 65.36 L 449.60 66.55 L 449.60 68.91 L 447.23 71.28 L 447.23 72.47 L 446.05 73.65 L 446.05 74.83 L 444.86 76.02 L 444.86 77.20 L 442.49 79.57 L 442.49 80.75 L 438.94 84.31 L 438.94 85.49 L 431.84 92.60 L 430.65 92.60 L 427.10 96.15 L 422.36 91.41 L 422.36 90.23 L 418.81 86.68 L 418.81 85.49 L 399.87 66.55 L 398.68 66.55 L 395.13 62.99 L 393.95 62.99 L 390.39 59.44 L 389.21 59.44 L 386.84 57.07 L 385.66 57.07 L 384.47 55.89 L 383.29 55.89 L 380.92 53.52 L 379.74 53.52 L 378.55 52.34 L 377.37 52.34 L 376.19 51.15 L 375.00 51.15 L 373.82 49.97 L 372.63 49.97 L 371.45 48.78 L 370.26 48.78 L 369.08 47.60 L 367.90 47.60 L 366.71 46.42 L 364.34 46.42 L 363.16 45.23 L 361.98 45.23 L 360.79 44.05 L 358.42 44.05 L 357.24 42.86 L 354.87 42.86 L 353.69 41.68 L 351.32 41.68 L 350.14 40.50 L 347.77 40.50 L 346.58 39.31 L 343.03 39.31 L 341.85 38.13 L 337.11 38.13 L 335.93 36.94 L 331.19 36.94 L 330.01 35.76 L 324.09 35.76 L 322.90 34.58 L 311.06 34.58 L 309.88 33.39 Z M 146.47 228.77 L 147.66 229.95 L 147.66 234.69 L 148.84 235.87 L 148.84 241.79 L 150.02 242.98 L 150.02 246.53 L 151.21 247.71 L 151.21 250.08 L 152.39 251.26 L 152.39 253.63 L 153.58 254.82 L 153.58 257.18 L 154.76 258.37 L 154.76 260.74 L 155.94 261.92 L 155.94 263.10 L 157.13 264.29 L 157.13 265.47 L 158.31 266.66 L 158.31 267.84 L 159.50 269.02 L 159.50 270.21 L 160.68 271.39 L 160.68 272.58 L 163.05 274.95 L 163.05 276.13 L 164.23 277.31 L 164.23 278.50 L 167.79 282.05 L 167.79 283.23 L 172.52 287.97 L 172.52 289.15 L 178.44 295.07 L 179.63 295.07 L 184.36 299.81 L 185.55 299.81 L 189.10 303.36 L 190.28 303.36 L 192.65 305.73 L 193.84 305.73 L 196.20 308.10 L 197.39 308.10 L 198.57 309.28 L 199.76 309.28 L 200.94 310.47 L 202.12 310.47 L 203.31 311.65 L 204.49 311.65 L 205.68 312.84 L 206.86 312.84 L 208.04 314.02 L 210.41 314.02 L 211.60 315.20 L 212.78 315.20 L 213.96 316.39 L 216.33 316.39 L 217.52 317.57 L 218.70 317.57 L 219.89 318.76 L 222.25 318.76 L 223.44 319.94 L 225.81 319.94 L 226.99 321.12 L 229.36 321.12 L 230.54 322.31 L 234.09 322.31 L 235.28 323.49 L 238.83 323.49 L 240.01 324.68 L 243.57 324.68 L 244.75 325.86 L 249.49 325.86 L 250.67 327.05 L 255.41 327.05 L 256.59 328.23 L 261.33 328.23 L 262.51 329.41 L 269.62 329.41 L 271.99 331.78 L 271.99 338.89 L 270.80 340.07 L 270.80 347.17 L 269.62 348.36 L 269.62 353.10 L 268.43 354.28 L 268.43 357.83 L 267.25 359.02 L 267.25 362.57 L 266.06 363.75 L 266.06 366.12 L 264.88 367.30 L 264.88 369.67 L 263.70 370.86 L 263.70 373.22 L 262.51 374.41 L 262.51 375.59 L 261.33 376.78 L 261.33 377.96 L 260.14 379.15 L 260.14 380.33 L 258.96 381.51 L 258.96 382.70 L 257.78 383.88 L 257.78 385.07 L 256.59 386.25 L 256.59 387.43 L 254.22 389.80 L 254.22 390.99 L 253.04 392.17 L 253.04 393.35 L 248.30 398.09 L 248.30 399.27 L 232.91 414.67 L 231.73 414.67 L 228.17 418.22 L 226.99 418.22 L 224.62 420.59 L 223.44 420.59 L 221.07 422.96 L 219.89 422.96 L 218.70 424.14 L 217.52 424.14 L 216.33 425.32 L 215.15 425.32 L 213.96 426.51 L 212.78 426.51 L 211.60 427.69 L 210.41 427.69 L 209.23 428.88 L 208.04 428.88 L 206.86 430.06 L 205.68 430.06 L 204.49 431.25 L 203.31 431.25 L 202.12 432.43 L 199.76 432.43 L 198.57 433.61 L 197.39 433.61 L 196.20 434.80 L 193.84 434.80 L 192.65 435.98 L 190.28 435.98 L 189.10 437.17 L 186.73 437.17 L 185.55 438.35 L 181.99 438.35 L 180.81 439.53 L 178.44 439.53 L 177.26 440.72 L 173.71 440.72 L 172.52 441.90 L 167.79 441.90 L 166.60 443.09 L 161.86 443.09 L 160.68 444.27 L 155.94 444.27 L 154.76 445.45 L 148.84 445.45 L 147.66 446.64 L 140.55 446.64 L 139.37 447.82 L 132.26 447.82 L 131.08 449.01 L 123.97 449.01 L 122.79 450.19 L 113.32 450.19 L 112.13 451.37 L 102.66 451.37 L 101.48 452.56 L 93.19 452.56 L 92.00 453.74 L 83.72 453.74 L 82.53 454.93 L 75.43 454.93 L 74.24 456.11 L 71.87 456.11 L 70.69 454.93 L 71.87 453.74 L 71.87 451.37 L 73.06 450.19 L 73.06 447.82 L 74.24 446.64 L 74.24 444.27 L 75.43 443.09 L 75.43 440.72 L 76.61 439.53 L 76.61 437.17 L 77.79 435.98 L 77.79 433.61 L 78.98 432.43 L 78.98 430.06 L 80.16 428.88 L 80.16 426.51 L 81.35 425.32 L 81.35 422.96 L 82.53 421.77 L 82.53 419.40 L 83.72 418.22 L 83.72 414.67 L 84.90 413.48 L 84.90 411.12 L 86.08 409.93 L 86.08 407.56 L 87.27 406.38 L 87.27 404.01 L 88.45 402.83 L 88.45 400.46 L 89.64 399.27 L 89.64 396.91 L 90.82 395.72 L 90.82 393.35 L 92.00 392.17 L 92.00 389.80 L 93.19 388.62 L 93.19 386.25 L 94.37 385.07 L 94.37 382.70 L 95.56 381.51 L 95.56 379.15 L 96.74 377.96 L 96.74 375.59 L 97.92 374.41 L 97.92 372.04 L 99.11 370.86 L 99.11 368.49 L 100.29 367.30 L 100.29 364.94 L 101.48 363.75 L 101.48 361.38 L 102.66 360.20 L 102.66 357.83 L 103.84 356.65 L 103.84 354.28 L 105.03 353.10 L 105.03 350.73 L 106.21 349.54 L 106.21 347.17 L 107.40 345.99 L 107.40 343.62 L 108.58 342.44 L 108.58 338.89 L 109.77 337.70 L 109.77 335.33 L 110.95 334.15 L 110.95 331.78 L 112.13 330.60 L 112.13 328.23 L 113.32 327.05 L 113.32 324.68 L 114.50 323.49 L 114.50 321.12 L 115.69 319.94 L 115.69 317.57 L 116.87 316.39 L 116.87 314.02 L 118.05 312.84 L 118.05 310.47 L 119.24 309.28 L 119.24 306.92 L 120.42 305.73 L 120.42 303.36 L 121.61 302.18 L 121.61 299.81 L 122.79 298.63 L 122.79 296.26 L 123.97 295.07 L 123.97 292.71 L 125.16 291.52 L 125.16 289.15 L 126.34 287.97 L 126.34 285.60 L 127.53 284.42 L 127.53 282.05 L 128.71 280.87 L 128.71 278.50 L 129.89 277.31 L 129.89 274.95 L 131.08 273.76 L 131.08 271.39 L 132.26 270.21 L 132.26 266.66 L 133.45 265.47 L 133.45 263.10 L 134.63 261.92 L 134.63 259.55 L 135.81 258.37 L 135.81 256.00 L 137.00 254.82 L 137.00 252.45 L 138.18 251.26 L 138.18 248.90 L 139.37 247.71 L 139.37 245.34 L 140.55 244.16 L 140.55 241.79 L 141.74 240.61 L 141.74 238.24 L 142.92 237.05 L 142.92 234.69 L 144.10 233.50 L 144.10 231.13 Z M 180.81 129.30 L 181.99 128.12 L 184.36 128.12 L 185.55 129.30 L 186.73 129.30 L 187.91 130.49 L 190.28 130.49 L 191.47 131.67 L 193.84 131.67 L 195.02 132.85 L 198.57 132.85 L 199.76 134.04 L 202.12 134.04 L 203.31 135.22 L 206.86 135.22 L 208.04 136.41 L 209.23 136.41 L 210.41 137.59 L 213.96 137.59 L 215.15 138.78 L 217.52 138.78 L 218.70 139.96 L 221.07 139.96 L 222.25 141.14 L 224.62 141.14 L 225.81 142.33 L 228.17 142.33 L 229.36 143.51 L 231.73 143.51 L 232.91 144.70 L 235.28 144.70 L 236.46 145.88 L 237.65 145.88 L 238.83 147.06 L 240.01 147.06 L 241.20 148.25 L 243.57 148.25 L 245.94 150.62 L 247.12 150.62 L 248.30 151.80 L 250.67 151.80 L 253.04 154.17 L 254.22 154.17 L 256.59 156.54 L 257.78 156.54 L 260.14 158.90 L 261.33 158.90 L 264.88 162.46 L 266.06 162.46 L 275.54 171.93 L 275.54 173.11 L 279.09 176.67 L 279.09 177.85 L 281.46 180.22 L 281.46 181.40 L 282.64 182.59 L 282.64 183.77 L 285.01 186.14 L 285.01 187.32 L 286.19 188.51 L 286.19 189.69 L 287.38 190.88 L 287.38 192.06 L 288.56 193.24 L 288.56 195.61 L 289.75 196.80 L 289.75 197.98 L 290.93 199.16 L 290.93 201.53 L 292.11 202.72 L 292.11 206.27 L 293.30 207.45 L 293.30 211.00 L 294.48 212.19 L 294.48 215.74 L 295.67 216.93 L 295.67 220.48 L 295.67 216.93 L 296.85 215.74 L 296.85 212.19 L 298.04 211.00 L 298.04 207.45 L 299.22 206.27 L 299.22 203.90 L 300.40 202.72 L 300.40 200.35 L 301.59 199.16 L 301.59 196.80 L 302.77 195.61 L 302.77 194.43 L 303.96 193.24 L 303.96 192.06 L 305.14 190.88 L 305.14 189.69 L 306.32 188.51 L 306.32 187.32 L 307.51 186.14 L 307.51 184.95 L 308.69 183.77 L 308.69 182.59 L 312.24 179.03 L 312.24 177.85 L 316.98 173.11 L 316.98 171.93 L 324.09 164.83 L 325.27 164.83 L 330.01 160.09 L 331.19 160.09 L 333.56 157.72 L 334.74 157.72 L 337.11 155.35 L 338.29 155.35 L 339.48 154.17 L 340.66 154.17 L 343.03 151.80 L 344.21 151.80 L 345.40 150.62 L 346.58 150.62 L 347.77 149.43 L 350.14 149.43 L 351.32 148.25 L 352.50 148.25 L 353.69 147.06 L 354.87 147.06 L 356.06 145.88 L 358.42 145.88 L 359.61 144.70 L 360.79 144.70 L 361.98 143.51 L 364.34 143.51 L 365.53 142.33 L 367.90 142.33 L 369.08 141.14 L 371.45 141.14 L 372.63 139.96 L 375.00 139.96 L 376.19 138.78 L 379.74 138.78 L 380.92 137.59 L 383.29 137.59 L 384.47 136.41 L 388.03 136.41 L 389.21 135.22 L 391.58 135.22 L 392.76 134.04 L 396.31 134.04 L 397.50 132.85 L 401.05 132.85 L 402.23 131.67 L 404.60 131.67 L 405.79 130.49 L 408.16 130.49 L 409.34 129.30 L 412.89 129.30 L 414.08 128.12 L 415.26 129.30 L 415.26 130.49 L 416.44 131.67 L 416.44 132.85 L 417.63 134.04 L 417.63 135.22 L 418.81 136.41 L 418.81 138.78 L 420.00 139.96 L 420.00 141.14 L 421.18 142.33 L 421.18 144.70 L 422.36 145.88 L 422.36 148.25 L 423.55 149.43 L 423.55 151.80 L 424.73 152.98 L 424.73 156.54 L 425.92 157.72 L 425.92 161.27 L 427.10 162.46 L 427.10 168.38 L 428.28 169.56 L 428.28 175.48 L 429.47 176.67 L 429.47 214.56 L 428.28 215.74 L 428.28 222.85 L 427.10 224.03 L 427.10 229.95 L 425.92 231.13 L 425.92 235.87 L 424.73 237.05 L 424.73 240.61 L 423.55 241.79 L 423.55 245.34 L 422.36 246.53 L 422.36 250.08 L 421.18 251.26 L 421.18 253.63 L 420.00 254.82 L 420.00 257.18 L 418.81 258.37 L 418.81 259.55 L 417.63 260.74 L 417.63 263.10 L 416.44 264.29 L 416.44 266.66 L 415.26 267.84 L 415.26 269.02 L 414.08 270.21 L 414.08 272.58 L 412.89 273.76 L 412.89 274.95 L 411.71 276.13 L 411.71 277.31 L 410.52 278.50 L 410.52 279.68 L 409.34 280.87 L 409.34 282.05 L 408.16 283.23 L 408.16 284.42 L 406.97 285.60 L 406.97 286.79 L 405.79 287.97 L 405.79 289.15 L 404.60 290.34 L 404.60 291.52 L 402.23 293.89 L 402.23 295.07 L 401.05 296.26 L 401.05 297.44 L 398.68 299.81 L 398.68 301.00 L 396.31 303.36 L 396.31 304.55 L 393.95 306.92 L 393.95 308.10 L 391.58 310.47 L 391.58 311.65 L 389.21 314.02 L 389.21 315.20 L 384.47 319.94 L 384.47 321.12 L 379.74 325.86 L 379.74 327.05 L 370.26 336.52 L 370.26 337.70 L 369.08 338.89 L 367.90 338.89 L 367.90 340.07 L 357.24 350.73 L 356.06 350.73 L 346.58 360.20 L 345.40 360.20 L 339.48 366.12 L 338.29 366.12 L 334.74 369.67 L 333.56 369.67 L 330.01 373.22 L 328.82 373.22 L 325.27 376.78 L 324.09 376.78 L 320.53 380.33 L 319.35 380.33 L 316.98 382.70 L 315.80 382.70 L 313.43 385.07 L 312.24 385.07 L 311.06 386.25 L 309.88 386.25 L 307.51 388.62 L 306.32 388.62 L 303.96 390.99 L 302.77 390.99 L 301.59 392.17 L 300.40 392.17 L 298.04 394.54 L 296.85 394.54 L 295.67 395.72 L 294.48 395.72 L 292.11 398.09 L 290.93 398.09 L 289.75 399.27 L 288.56 399.27 L 287.38 400.46 L 286.19 400.46 L 285.01 401.64 L 283.83 401.64 L 282.64 402.83 L 281.46 402.83 L 279.09 405.20 L 277.91 405.20 L 276.72 406.38 L 275.54 406.38 L 274.35 407.56 L 271.99 407.56 L 269.62 409.93 L 268.43 409.93 L 267.25 408.75 L 273.17 402.83 L 273.17 401.64 L 276.72 398.09 L 276.72 396.91 L 279.09 394.54 L 279.09 393.35 L 280.27 392.17 L 280.27 390.99 L 282.64 388.62 L 282.64 387.43 L 283.83 386.25 L 283.83 385.07 L 285.01 383.88 L 285.01 382.70 L 286.19 381.51 L 286.19 380.33 L 287.38 379.15 L 287.38 377.96 L 288.56 376.78 L 288.56 374.41 L 289.75 373.22 L 289.75 370.86 L 290.93 369.67 L 290.93 368.49 L 292.11 367.30 L 292.11 363.75 L 293.30 362.57 L 293.30 360.20 L 294.48 359.02 L 294.48 354.28 L 295.67 353.10 L 295.67 348.36 L 296.85 347.17 L 296.85 338.89 L 298.04 337.70 L 298.04 319.94 L 296.85 318.76 L 296.85 312.84 L 294.48 310.47 L 290.93 310.47 L 289.75 309.28 L 283.83 309.28 L 282.64 308.10 L 279.09 308.10 L 277.91 306.92 L 273.17 306.92 L 271.99 305.73 L 267.25 305.73 L 266.06 304.55 L 261.33 304.55 L 260.14 303.36 L 256.59 303.36 L 255.41 302.18 L 251.86 302.18 L 250.67 301.00 L 248.30 301.00 L 247.12 299.81 L 243.57 299.81 L 242.38 298.63 L 240.01 298.63 L 238.83 297.44 L 236.46 297.44 L 235.28 296.26 L 234.09 296.26 L 232.91 295.07 L 230.54 295.07 L 229.36 293.89 L 228.17 293.89 L 226.99 292.71 L 224.62 292.71 L 223.44 291.52 L 222.25 291.52 L 219.89 289.15 L 218.70 289.15 L 217.52 287.97 L 216.33 287.97 L 215.15 286.79 L 213.96 286.79 L 212.78 285.60 L 211.60 285.60 L 209.23 283.23 L 208.04 283.23 L 204.49 279.68 L 203.31 279.68 L 197.39 273.76 L 196.20 273.76 L 195.02 272.58 L 195.02 271.39 L 193.84 271.39 L 190.28 267.84 L 190.28 266.66 L 184.36 260.74 L 184.36 259.55 L 181.99 257.18 L 181.99 256.00 L 180.81 254.82 L 180.81 253.63 L 178.44 251.26 L 178.44 250.08 L 177.26 248.90 L 177.26 247.71 L 176.07 246.53 L 176.07 245.34 L 174.89 244.16 L 174.89 241.79 L 173.71 240.61 L 173.71 239.42 L 172.52 238.24 L 172.52 235.87 L 171.34 234.69 L 171.34 232.32 L 170.15 231.13 L 170.15 227.58 L 168.97 226.40 L 168.97 222.85 L 167.79 221.66 L 167.79 215.74 L 166.60 214.56 L 166.60 203.90 L 165.42 202.72 L 165.42 184.95 L 166.60 183.77 L 166.60 173.11 L 167.79 171.93 L 167.79 167.19 L 168.97 166.01 L 168.97 161.27 L 170.15 160.09 L 170.15 156.54 L 171.34 155.35 L 171.34 151.80 L 172.52 150.62 L 172.52 148.25 L 173.71 147.06 L 173.71 144.70 L 174.89 143.51 L 174.89 142.33 L 176.07 141.14 L 176.07 138.78 L 177.26 137.59 L 177.26 136.41 L 178.44 135.22 L 178.44 134.04 L 179.63 132.85 L 179.63 131.67 L 180.81 130.49 Z M 357.24 158.90 L 356.06 160.09 L 351.32 160.09 L 350.14 161.27 L 347.77 161.27 L 346.58 162.46 L 345.40 162.46 L 343.03 164.83 L 341.85 164.83 L 334.74 171.93 L 334.74 173.11 L 333.56 174.30 L 333.56 175.48 L 332.37 176.67 L 332.37 177.85 L 331.19 179.03 L 331.19 180.22 L 330.01 181.40 L 330.01 186.14 L 328.82 187.32 L 328.82 196.80 L 330.01 197.98 L 330.01 202.72 L 331.19 203.90 L 331.19 206.27 L 332.37 207.45 L 332.37 208.64 L 333.56 209.82 L 333.56 211.00 L 335.93 213.37 L 335.93 214.56 L 340.66 219.29 L 341.85 219.29 L 344.21 221.66 L 345.40 221.66 L 346.58 222.85 L 347.77 222.85 L 348.95 224.03 L 350.14 224.03 L 351.32 225.21 L 356.06 225.21 L 357.24 226.40 L 363.16 226.40 L 364.34 225.21 L 369.08 225.21 L 370.26 224.03 L 371.45 224.03 L 372.63 222.85 L 373.82 222.85 L 375.00 221.66 L 376.19 221.66 L 378.55 219.29 L 379.74 219.29 L 385.66 213.37 L 385.66 212.19 L 388.03 209.82 L 388.03 208.64 L 389.21 207.45 L 389.21 206.27 L 390.39 205.08 L 390.39 202.72 L 391.58 201.53 L 391.58 196.80 L 392.76 195.61 L 392.76 188.51 L 391.58 187.32 L 391.58 182.59 L 390.39 181.40 L 390.39 180.22 L 389.21 179.03 L 389.21 176.67 L 386.84 174.30 L 386.84 173.11 L 378.55 164.83 L 377.37 164.83 L 375.00 162.46 L 373.82 162.46 L 372.63 161.27 L 370.26 161.27 L 369.08 160.09 L 365.53 160.09 L 364.34 158.90 Z M 230.54 158.90 L 229.36 160.09 L 224.62 160.09 L 223.44 161.27 L 222.25 161.27 L 221.07 162.46 L 219.89 162.46 L 218.70 163.64 L 217.52 163.64 L 216.33 164.83 L 215.15 164.83 L 209.23 170.75 L 209.23 171.93 L 206.86 174.30 L 206.86 175.48 L 205.68 176.67 L 205.68 177.85 L 204.49 179.03 L 204.49 181.40 L 203.31 182.59 L 203.31 187.32 L 202.12 188.51 L 202.12 195.61 L 203.31 196.80 L 203.31 201.53 L 204.49 202.72 L 204.49 205.08 L 205.68 206.27 L 205.68 207.45 L 206.86 208.64 L 206.86 209.82 L 208.04 211.00 L 208.04 212.19 L 211.60 215.74 L 211.60 216.93 L 213.96 219.29 L 215.15 219.29 L 217.52 221.66 L 218.70 221.66 L 219.89 222.85 L 221.07 222.85 L 222.25 224.03 L 224.62 224.03 L 225.81 225.21 L 229.36 225.21 L 230.54 226.40 L 237.65 226.40 L 238.83 225.21 L 242.38 225.21 L 243.57 224.03 L 244.75 224.03 L 245.94 222.85 L 248.30 222.85 L 250.67 220.48 L 251.86 220.48 L 258.96 213.37 L 258.96 212.19 L 261.33 209.82 L 261.33 208.64 L 262.51 207.45 L 262.51 206.27 L 263.70 205.08 L 263.70 202.72 L 264.88 201.53 L 264.88 197.98 L 266.06 196.80 L 266.06 187.32 L 264.88 186.14 L 264.88 182.59 L 263.70 181.40 L 263.70 179.03 L 262.51 177.85 L 262.51 176.67 L 260.14 174.30 L 260.14 173.11 L 251.86 164.83 L 250.67 164.83 L 248.30 162.46 L 247.12 162.46 L 245.94 161.27 L 243.57 161.27 L 242.38 160.09 L 238.83 160.09 L 237.65 158.90 Z M 279.09 61.81 L 280.27 60.63 L 312.24 60.63 L 313.43 61.81 L 320.53 61.81 L 321.72 62.99 L 327.64 62.99 L 328.82 64.18 L 332.37 64.18 L 333.56 65.36 L 337.11 65.36 L 338.29 66.55 L 340.66 66.55 L 341.85 67.73 L 344.21 67.73 L 345.40 68.91 L 347.77 68.91 L 348.95 70.10 L 350.14 70.10 L 351.32 71.28 L 353.69 71.28 L 354.87 72.47 L 356.06 72.47 L 357.24 73.65 L 358.42 73.65 L 359.61 74.83 L 360.79 74.83 L 361.98 76.02 L 363.16 76.02 L 364.34 77.20 L 365.53 77.20 L 367.90 79.57 L 369.08 79.57 L 370.26 80.75 L 371.45 80.75 L 373.82 83.12 L 375.00 83.12 L 377.37 85.49 L 378.55 85.49 L 383.29 90.23 L 384.47 90.23 L 399.87 105.62 L 399.87 106.80 L 401.05 107.99 L 401.05 109.17 L 399.87 110.36 L 397.50 110.36 L 396.31 111.54 L 393.95 111.54 L 392.76 112.73 L 390.39 112.73 L 389.21 113.91 L 385.66 113.91 L 384.47 115.09 L 380.92 115.09 L 379.74 116.28 L 377.37 116.28 L 376.19 117.46 L 371.45 117.46 L 370.26 118.65 L 366.71 118.65 L 365.53 119.83 L 361.98 119.83 L 360.79 121.01 L 358.42 121.01 L 357.24 122.20 L 353.69 122.20 L 352.50 123.38 L 348.95 123.38 L 347.77 124.57 L 345.40 124.57 L 344.21 125.75 L 340.66 125.75 L 339.48 126.93 L 337.11 126.93 L 335.93 128.12 L 334.74 128.12 L 333.56 129.30 L 331.19 129.30 L 330.01 130.49 L 328.82 130.49 L 327.64 131.67 L 326.45 131.67 L 325.27 132.85 L 324.09 132.85 L 322.90 134.04 L 321.72 134.04 L 320.53 135.22 L 319.35 135.22 L 318.16 136.41 L 316.98 136.41 L 313.43 139.96 L 312.24 139.96 L 303.96 148.25 L 303.96 149.43 L 300.40 152.98 L 300.40 155.35 L 299.22 156.54 L 299.22 157.72 L 298.04 158.90 L 298.04 160.09 L 296.85 161.27 L 296.85 162.46 L 295.67 163.64 L 294.48 162.46 L 294.48 161.27 L 293.30 160.09 L 293.30 157.72 L 292.11 156.54 L 292.11 155.35 L 290.93 154.17 L 290.93 152.98 L 289.75 151.80 L 289.75 150.62 L 286.19 147.06 L 286.19 145.88 L 277.91 137.59 L 276.72 137.59 L 273.17 134.04 L 271.99 134.04 L 270.80 132.85 L 269.62 132.85 L 267.25 130.49 L 266.06 130.49 L 264.88 129.30 L 263.70 129.30 L 262.51 128.12 L 261.33 128.12 L 260.14 126.93 L 257.78 126.93 L 256.59 125.75 L 255.41 125.75 L 254.22 124.57 L 251.86 124.57 L 250.67 123.38 L 248.30 123.38 L 247.12 122.20 L 244.75 122.20 L 243.57 121.01 L 241.20 121.01 L 240.01 119.83 L 237.65 119.83 L 236.46 118.65 L 232.91 118.65 L 231.73 117.46 L 229.36 117.46 L 228.17 116.28 L 225.81 116.28 L 224.62 115.09 L 222.25 115.09 L 221.07 113.91 L 218.70 113.91 L 217.52 112.73 L 213.96 112.73 L 212.78 111.54 L 210.41 111.54 L 209.23 110.36 L 206.86 110.36 L 205.68 109.17 L 204.49 109.17 L 203.31 107.99 L 200.94 107.99 L 199.76 106.80 L 198.57 106.80 L 197.39 105.62 L 198.57 104.44 L 198.57 103.25 L 209.23 92.60 L 210.41 92.60 L 216.33 86.68 L 217.52 86.68 L 221.07 83.12 L 222.25 83.12 L 223.44 81.94 L 224.62 81.94 L 226.99 79.57 L 228.17 79.57 L 230.54 77.20 L 231.73 77.20 L 232.91 76.02 L 234.09 76.02 L 235.28 74.83 L 236.46 74.83 L 237.65 73.65 L 238.83 73.65 L 240.01 72.47 L 241.20 72.47 L 242.38 71.28 L 243.57 71.28 L 244.75 70.10 L 247.12 70.10 L 248.30 68.91 L 249.49 68.91 L 250.67 67.73 L 253.04 67.73 L 254.22 66.55 L 256.59 66.55 L 257.78 65.36 L 261.33 65.36 L 262.51 64.18 L 266.06 64.18 L 267.25 62.99 L 271.99 62.99 L 273.17 61.81 Z" />
</svg>
